<?xml version="1.0" encoding="utf-8"?>
<!-- Generator: Adobe Illustrator 19.2.1, SVG Export Plug-In . SVG Version: 6.00 Build 0)  -->
<svg version="1.1" xmlns="http://www.w3.org/2000/svg" xmlns:xlink="http://www.w3.org/1999/xlink" x="0px" y="0px"
	 viewBox="10 60 237.8 134.3" style="enable-background:new 0 0 259.8 439.3;" xml:space="preserve">
<style type="text/css">
	.st0{fill:#0277A1;}
	.st1{fill:#000000;}
	.st2{fill:none;stroke:#000000;stroke-width:4;stroke-miterlimit:10;}
	.st3{fill:none;stroke:#000000;stroke-width:13;stroke-miterlimit:10;}
	.st4{fill:none;stroke:#000000;stroke-width:14;stroke-miterlimit:10;}
	.st5{fill:none;stroke:#000000;stroke-width:7;stroke-miterlimit:10;}
</style>
<g id="Layer_2">
	<g>
		<path class="st1" d="M79.8,152.8l0.2-5.9c0-1.7-0.1-2.9-0.2-3.6c-0.2-0.7-0.4-1.4-0.6-2.1c-0.2-0.7-0.4-1.2-0.4-1.5
			s0.1-0.6,0.2-0.9c0.1-0.2,0.3-0.4,0.6-0.5c0.3-0.1,0.6-0.2,0.8-0.3c0.3-0.1,0.6-0.1,1-0.2c0.7,0,1.1-0.1,1.4-0.1h0.5
			c1.5,0,3,0.8,4.7,2.4c2,1.9,3.2,3.9,3.7,6c0.3,1.2,0.4,2.6,0.5,4.1c0.1,1.5,0.1,2.5,0.2,3c0.1,1.2,0.2,1.9,0.4,2.4v2.5
			c-0.2,0.3-0.3,0.9-0.3,1.6c0,2.7-0.6,5.7-1.9,8.9c-1.2,3.2-2.8,5.7-4.6,7.3c-1.4,1.2-2.3,2-2.8,2.2c-0.5,0.2-1,0.3-1.4,0.3
			c-0.5,0-1-0.2-1.5-0.5c-0.5-0.3-0.8-0.8-0.8-1.4c0.8-0.8,1.2-2.9,1.2-6.3c0-2-0.2-5-0.5-8.9C80,157.7,79.8,154.7,79.8,152.8z
			 M83.4,170.4v5.1c2.8-2,4.7-5.6,5.9-10.9c0.6-2.7,0.8-5.6,0.8-8.5c0-10.1-2.5-15.1-7.5-15.1v0.1c0,3.3,0.1,8.2,0.4,14.8
			C83.2,162.4,83.4,167.2,83.4,170.4z"/>
		<path class="st1" d="M103.5,158.9l-1.3-0.1c-0.4,0-0.7,0.1-0.9,0.4v16.6c1.8-0.1,2.8-0.2,2.8-0.2c2,0,3,0.5,3,1.4v0.2
			c-0.2,0.5-0.7,0.9-1.2,1.1s-1.1,0.4-1.5,0.4c-0.4,0-1,0.1-1.7,0.1h-1.7c-1.4,0-2.2-0.3-2.5-0.8c-0.1-0.2-0.2-0.6-0.2-1v-38.8
			l4.6-0.5c0.5,0,1.1,0.2,1.6,0.5c0.6,0.3,0.8,0.7,0.8,1.3c0,1.1-0.8,1.6-2.4,1.6l-1.5-0.1c-0.3,0-0.5,0-0.6,0l0.4,8.9
			c0,0.7,0,1.8-0.1,3.1c-0.1,1.4-0.1,2.4-0.1,3c0.2,0,0.5-0.1,0.8-0.2c0.7-0.2,1.3-0.3,1.7-0.3c0.4,0,0.8,0.1,1.1,0.4
			c0.3,0.3,0.5,0.7,0.5,1.1c0,0.4-0.1,0.8-0.4,1.1C104.3,158.7,103.9,158.9,103.5,158.9z"/>
		<path class="st1" d="M110.2,177.9c0-1,0.4-1.4,1.2-1.4c0.4,0,0.9,0.1,1.6,0.4c0.7,0.3,1.2,0.4,1.7,0.4c0.5,0,1-0.3,1.6-0.9
			c0.6-0.6,1-1.4,1.3-2.3c0.6-1.8,1-3.5,1-5s-0.3-3.1-0.8-4.8c-0.5-1.7-1.2-3.3-1.9-4.8c-0.8-1.5-1.5-3-2.3-4.5
			c-1.8-3.6-2.7-6.9-2.7-9.8c0-2.8,0.9-5,2.7-6.6c0.9-0.8,2.1-1.3,3.3-1.3c0.6,0,1.3,0.2,1.9,0.5c0.6,0.4,1,0.8,1.3,1.4v1.2
			c-1.5,0-2.5-0.2-3-0.5c-0.7,0.1-1.2,0.4-1.7,0.9c-0.9,1-1.3,2.3-1.3,3.6c0,1.4,0.2,2.8,0.6,4.3c0.4,1.5,0.9,2.8,1.4,4.1
			c0.6,1.3,1.1,2.5,1.7,3.6c0.6,1.1,1.1,2,1.5,2.7c0.4,0.7,0.6,1.1,0.6,1.1v0.4c0.1,0.5,0.3,1.2,0.6,2.2c0.3,1,0.5,1.8,0.7,2.3
			c0.4,1.6,0.7,3,0.7,4.3c0,1.3-0.2,2.5-0.5,3.6c-0.3,1.2-0.7,2.2-1.3,3.3c-0.6,1-1.3,1.9-2.3,2.5s-1.9,1-2.7,1
			c-0.8,0-1.5,0-2.1-0.1s-1.2-0.3-1.7-0.6S110.2,178.4,110.2,177.9z"/>
		<path class="st1" d="M136.6,138.4c0.7,5,1.4,11.6,2.2,19.6c0.8,8,1.2,14.3,1.2,18.7c0,1.2-0.6,1.8-1.8,1.8c-1.2,0-1.8-0.5-1.8-1.4
			v-7c-0.5-0.3-1.4-0.6-2.7-0.9c-1.3-0.2-2.5-0.4-3.5-0.5c-0.4,0.7-0.8,2.2-1,4.5c-0.2,2.3-0.6,3.8-1.1,4.7c-1.7,0-2.7-0.4-2.9-1.1
			c0.8-1.2,2.4-8.6,4.9-22.4c1-5.4,1.5-8.6,1.7-9.5c1-4.6,2-6.9,3.1-6.9c0.7,0,1.2,0.2,1.6,0.5V138.4z M136.4,166.8
			c-0.1-0.6-0.2-2.6-0.5-5.8c-0.8-8.2-1.2-12.8-1.2-13.8c0-1,0-1.5,0-1.6c-0.2,0.2-0.7,2.8-1.5,7.6c-0.8,4.8-1.2,7.5-1.4,7.9
			s-0.3,1-0.5,1.7c-0.5,1.5-0.7,2.7-0.8,3.5c1.5,0.4,2.7,0.6,3.7,0.6S136,166.9,136.4,166.8z"/>
		<path class="st1" d="M156.4,177.3c0,1.2-0.4,1.8-1.3,1.8c-0.7,0-1.3-0.5-1.9-1.4v-0.2c-0.1-1.4-0.5-3.4-1.3-5.9s-1.3-4.2-1.5-5.1
			s-0.5-2.5-0.9-4.9c-0.4-2.4-0.8-4.3-1.1-5.5v21.2c0,1.1-0.6,1.7-1.8,1.7c-0.4,0-0.8-0.1-1.1-0.4s-0.4-0.6-0.4-1.1V177l0.4-31.5
			v-6.6c0-0.4,0.1-0.7,0.3-0.9c0.2-0.2,0.7-0.3,1.5-0.3c0.8,0,1.7,0.3,2.6,0.8c0.9,0.6,1.6,1.3,2.1,2.1c1.1,1.8,1.6,3.8,1.6,6
			c0,1.7-0.4,3.8-1.3,6c-0.1,0.2-0.3,0.8-0.6,1.5s-0.5,1.3-0.6,1.4c0,1.4,0.2,3.1,0.7,5.2c0.4,2.1,0.9,3.8,1.2,5.1s1,3.3,1.9,6
			c0.9,2.7,1.4,4.3,1.5,4.7V177.3z M148.2,140.2l-0.3,11c0,1.1,0,1.9,0.1,2.5c0.6-0.6,1.2-1.3,1.7-2.1l0.8-4.6
			c0-1.9-0.2-3.4-0.7-4.7C149.2,141,148.7,140.3,148.2,140.2z"/>
		<path class="st1" d="M173.8,162.3l-0.5,6.8v0.2c-0.2,1-0.3,2.1-0.3,3.2c0,1.2-0.2,2.3-0.6,3.3c-0.4,1.1-1,2-1.8,2.9
			c-0.8,0.8-1.7,1.2-2.7,1.2c-1,0-1.8-0.3-2.6-1s-1.5-1.5-2-2.6c-0.5-1-1-2.3-1.4-3.7c-0.4-1.4-0.7-2.9-0.9-4.2
			c-0.2-1.4-0.4-2.8-0.5-4.3c-0.2-2.3-0.3-4.2-0.3-5.7s0-2.7,0.1-3.7c0.1-1.8,0.1-3.3,0.2-4.7c0.1-1.4,0.1-2.4,0.2-3.2
			c0-0.7,0-1.4,0.1-1.9c0-0.5,0.1-1.1,0.2-1.9c0.1-0.7,0.2-1.4,0.3-1.9c0.1-0.5,0.3-1.1,0.6-1.7c0.3-0.6,0.6-1,0.9-1.4
			c0.8-0.8,1.7-1.2,2.7-1.2s1.8,0.1,2.4,0.3c0.6,0.2,1.1,0.4,1.5,0.7c0.4,0.3,0.8,0.7,1.1,1.2c0.3,0.5,0.6,1,0.8,1.5s0.4,1,0.6,1.7
			c0.2,0.8,0.5,2,0.7,3.6C173.4,152.1,173.8,157.5,173.8,162.3z M169.1,142.7c-0.4-0.9-0.8-1.6-1.3-2.1c-0.5-0.5-1-0.7-1.5-0.7
			c-0.5,0-0.9,0.1-1.2,0.4c-0.3,0.2-0.6,0.6-0.8,1.1s-0.4,1-0.6,1.6s-0.3,1.2-0.4,2c-0.1,0.8-0.2,1.5-0.3,2.2
			c-0.1,0.6-0.2,1.4-0.2,2.3s-0.1,1.6-0.1,2.2c0,0.6-0.1,1.2-0.1,2s0,1.3,0,1.6v1.1c0,2.9,0.3,6.2,0.8,9.9c1.1,7.3,2.6,11,4.6,11
			c0.7,0,1.3-0.7,1.8-2c0.5-1.3,0.8-3,1-5c0.3-3.4,0.5-5.9,0.5-7.4s0-2.6,0-3.3c0-0.7,0-1.6-0.1-2.9c0-1.3-0.1-2.5-0.2-3.6
			c-0.1-1.1-0.2-2.3-0.4-3.7c-0.2-1.3-0.4-2.5-0.6-3.6C169.8,144.6,169.5,143.6,169.1,142.7z"/>
		<path class="st1" d="M181.6,138.9l0.6,19.3c0,0.6,0,1.2-0.1,1.7v0.2c0.1,1,0.1,2.5,0.2,4.4c0.3,4.3,0.4,7.5,0.4,9.6v1.7h3.8
			c0.6,0.4,0.9,0.6,1,0.8c0.1,0.2,0.1,0.4,0.1,0.7s-0.1,0.6-0.4,0.9c-0.3,0.3-0.5,0.5-0.8,0.5c-0.3,0-0.6-0.1-1-0.2
			c-0.3,0.1-0.6,0.1-1,0.1l-1.7-0.1c-0.4,0.4-0.8,0.7-1.4,0.7c-0.6,0-1-0.2-1.4-0.5c-0.4-0.3-0.6-0.7-0.6-1.2l0.3-2.4
			c0-4.1-0.2-10.2-0.5-18.3c-0.4-8.1-0.5-14.3-0.5-18.3c0-0.3,0.1-0.6,0.4-0.8c0.3-0.2,0.6-0.3,1-0.3s0.8,0.1,1.1,0.4
			C181.4,138.1,181.6,138.4,181.6,138.9z"/>
	</g>
</g>
<g id="Layer_1">
	<g>
		<g>
			<polygon class="st2" points="92.5,92.3 107.1,96.8 107.1,100.9 107.1,109.6 89.9,105.7 			"/>
		</g>
		<g>
			<polyline class="st2" points="168.5,97.5 164.2,93.1 137.3,105.7 133.3,100.9 124.7,100.9 107.1,100.9 			"/>
		</g>
		<g>
			<polyline class="st2" points="107.1,109.6 107.1,123.2 146.8,123.2 164.2,93.1 			"/>
		</g>
		<path class="st2" d="M170.3,117.5c9.2-1.1,0-15.9,0-15.9S161.1,116.4,170.3,117.5z"/>
		<g>
			<line x1="124.7" y1="100.9" x2="124.7" y2="92.3"/>
			<line class="st2" x1="124.7" y1="100.9" x2="124.7" y2="92.3"/>
		</g>
		<g>
			<line x1="119.7" y1="92.3" x2="130.1" y2="92.3"/>
			<line class="st2" x1="119.7" y1="92.3" x2="130.1" y2="92.3"/>
		</g>
	</g>
	<path class="st3" d="M64,77.8c-14.4,19.5-24.2,37.1-38.7,56.6c19.3,18.3,28.1,42,38.2,51.5"/>
	<path class="st4" d="M223.1,439.3"/>
	<path class="st5" d="M143.8,128.4"/>
	<path class="st3" d="M199.8,77.8c14.4,19.5,24.2,37.1,38.7,56.6c-14.3,13.5-23.9,38-38.2,51.5"/>
	<g id="Layer_3">
	</g>
</g>
</svg>
